<svg xmlns="http://www.w3.org/2000/svg" viewBox="0 0 24 24" width="24" height="24" fill="none">
  <g stroke="#2563EB">
    <path
      d="M10.3 2h3.4l.5 2.1c.4.1.8.3 1.2.5l1.9-1.1 2.4 2.4-1.1 1.9c.2.4.4.8.5 1.2L22 10.3v3.4l-2.1.5c-.1.4-.3.8-.5 1.2l1.1 1.9-2.4 2.4-1.9-1.1c-.4.2-.8.4-1.2.5L13.7 22h-3.4l-.5-2.1c-.4-.1-.8-.3-1.2-.5l-1.9 1.1-2.4-2.4 1.1-1.9c-.2-.4-.4-.8-.5-1.2L2 13.7v-3.4l2.1-.5c.1-.4.3-.8.5-1.2L3.5 6.7l2.4-2.4 1.9 1.1c.4-.2.8-.4 1.2-.5L10.3 2Z"
      stroke-width="1.5"
      stroke-linejoin="round"
    />
    <circle cx="12" cy="12" r="3" stroke-width="1.5" />
  </g>
</svg>
